# xmcd
# 
# Track frame offsets:
#     222
#     16027
#     28905
#     36980
#     47912
#     62940
#     93450
#     105717
#     118725
#     136640
#     147727
#     158375
#     173420
#     189325
#     205835
# 
# Disc length: 3000
# 
# Revision: 0
# Processed by: cddbd v1.5.2PL0 Copyright (c) Steve Scherf et al.
# Submitted via: fre:ac v1.0.17
# 
DISCID=c90bb60f
DTITLE=Various Artist - Cookin' with the Blues, Disc 2
DYEAR=1992
DGENRE=Blues
TTITLE0=John Lee Hooker - Black Man Blues
TTITLE1=Screamin' Jay Hawkins - This Is All
TTITLE2=Big Joe Williams - Watergate Blues
TTITLE3=Junior Wells - You Sure Look Good To Me
TTITLE4=Peter Green - Post Modern Blues
TTITLE5=Luther Allison - You Upset Me
TTITLE6=Aces, The - Take A Little Walk With Me
TTITLE7=Earl Hooker - Hold On
TTITLE8=Matt "Guitar" Murphy - Taking Off
TTITLE9=Little Walter - Blue Midnight
TTITLE10=Paul Lamb and The Blues Burglars - Spaced Out
TTITLE11=Isaac Scott - Help
TTITLE12=Buddy Reed and Th'Rip It Ups - Rialto Rock
TTITLE13=Brewers Droop with Mark Knopfler - My Old Lady
TTITLE14=Sunnyland Slim - Soft And Mellow Stella
EXTD=
EXTT0=
EXTT1=
EXTT2=
EXTT3=
EXTT4=
EXTT5=
EXTT6=
EXTT7=
EXTT8=
EXTT9=
EXTT10=
EXTT11=
EXTT12=
EXTT13=
EXTT14=
PLAYORDER=
